<?xml version="1.0" encoding="iso-8859-1"?>
<!-- Generator: Adobe Illustrator 16.0.0, SVG Export Plug-In . SVG Version: 6.00 Build 0)  -->
<!DOCTYPE svg PUBLIC "-//W3C//DTD SVG 1.1//EN" "http://www.w3.org/Graphics/SVG/1.1/DTD/svg11.dtd">
<svg version="1.1" id="Capa_1" xmlns="http://www.w3.org/2000/svg" xmlns:xlink="http://www.w3.org/1999/xlink" x="0px" y="0px"
	 width="91.875px" height="91.875px" viewBox="0 0 91.875 91.875" style="enable-background:new 0 0 91.875 91.875;"
	 xml:space="preserve">
<g>
	<g>
		<path d="M45.937,0C20.566,0,0,20.566,0,45.937c0,25.372,20.566,45.938,45.937,45.938c25.372,0,45.938-20.566,45.938-45.938
			C91.875,20.566,71.309,0,45.937,0z M45.937,83.898c-21.002,0-38.028-17.026-38.028-38.028S24.935,7.842,45.937,7.842
			c21,0,38.028,17.025,38.028,38.028C83.965,66.872,66.938,83.898,45.937,83.898z"/>
		<polygon points="45.937,40.613 27.903,22.816 22.427,22.816 22.427,68.906 30.336,68.906 30.334,35.593 45.7,50.805 
			68.973,28.292 68.973,22.816 63.801,22.816 		"/>
		<polygon points="33.302,43.351 33.302,53.618 45.7,66.016 61.193,50.207 61.062,68.906 68.973,68.906 68.973,32.171 45.7,55.368 
					"/>
	</g>
</g>
<g>
</g>
<g>
</g>
<g>
</g>
<g>
</g>
<g>
</g>
<g>
</g>
<g>
</g>
<g>
</g>
<g>
</g>
<g>
</g>
<g>
</g>
<g>
</g>
<g>
</g>
<g>
</g>
<g>
</g>
</svg>
