<?xml version="1.0" standalone="no"?><svg xmlns:xlink="http://www.w3.org/1999/xlink" xmlns="http://www.w3.org/2000/svg" viewBox="0 0 1000 600.0052963897537" preserveAspectRatio="xMaxYMax slice"><g transform="scale(1.891567769198467)"><rect x="0" y="0" width="528.6666666666667" height="317.20000000000005" fill="#ffffff"/><rect x="0" y="0" width="52.87" height="52.87" fill="#114ea5"/><rect x="0" y="0" width="52.87" height="52.87" fill="#114ea5"/><rect x="52.87" y="0" width="52.87" height="52.87" fill="#114ea5"/><path d="M 52.87 52.87 A 52.87 52.87 0 0 0 105.74 0 L 52.87 0" fill="#114ea5"/><rect x="105.73333333333335" y="0" width="52.866666666666674" height="52.866666666666674" fill="#ffffff"/><rect x="105.73" y="0" width="26.43" height="26.43" fill="#114ea5"/><path d="M 105.73 26.43 A 26.43 26.43 0 0 1 132.16 0 L 132.16 6.6075 A 19.822499999999998 19.822499999999998 0 0 0 112.3375 26.43" fill="#114ea5"/><rect x="132.17" y="0" width="26.43" height="26.43" fill="#114ea5"/><path d="M 132.17 0 A 26.43 26.43 0 0 1 158.6 26.43 L 151.99249999999998 26.43 A 19.822499999999998 19.822499999999998 0 0 0 132.17 6.6075" fill="#114ea5"/><rect x="105.73" y="26.43" width="26.43" height="26.43" fill="#114ea5"/><path d="M 105.73 26.43 A 26.43 26.43 0 0 0 132.16 52.86 L 132.16 46.2525 A 19.822499999999998 19.822499999999998 0 0 1 112.3375 26.43" fill="#114ea5"/><rect x="132.17" y="26.43" width="26.43" height="26.43" fill="#114ea5"/><path d="M 132.17 52.86 A 26.43 26.43 0 0 0 158.6 26.43 L 151.99249999999998 26.43 A 19.822499999999998 19.822499999999998 0 0 1 132.17 46.2525" fill="#114ea5"/><rect x="158.60000000000002" y="0" width="52.866666666666674" height="52.866666666666674" fill="#ffffff"/><rect x="158.6" y="0" width="26.43" height="26.43" fill="#114ea5"/><path d="M 158.6 0 A 26.43 26.43 0 0 0 185.03 26.43 L 185.03 0" fill="#114ea5"/><rect x="185.03" y="0" width="26.43" height="26.43" fill="#114ea5"/><path d="M 185.03 26.43 A 26.43 26.43 0 0 0 211.46 0 L 185.03 0" fill="#114ea5"/><rect x="158.6" y="26.43" width="26.43" height="26.43" fill="#114ea5"/><path d="M 158.6 52.86 A 26.43 26.43 0 0 1  185.03 26.43 L 185.03 52.86" fill="#114ea5"/><rect x="185.03" y="26.43" width="26.43" height="26.43" fill="#114ea5"/><path d="M 185.03 26.43 A 26.43 26.43 0 0 1 211.46 52.86 L 185.03 52.86" fill="#114ea5"/><rect x="211.4666666666667" y="0" width="52.866666666666674" height="52.866666666666674" fill="#ffffff"/><rect x="211.47" y="0" width="26.43" height="26.43" fill="#114ea5"/><path d="M 211.47 0 A 26.43 26.43 0 0 0 237.9 26.43 L 237.9 0" fill="#114ea5"/><rect x="237.9" y="0" width="26.43" height="26.43" fill="#114ea5"/><path d="M 237.9 26.43 A 26.43 26.43 0 0 0 264.33 0 L 237.9 0" fill="#114ea5"/><rect x="211.47" y="26.43" width="26.43" height="26.43" fill="#114ea5"/><path d="M 211.47 52.86 A 26.43 26.43 0 0 1  237.9 26.43 L 237.9 52.86" fill="#114ea5"/><rect x="237.9" y="26.43" width="26.43" height="26.43" fill="#114ea5"/><path d="M 237.9 26.43 A 26.43 26.43 0 0 1 264.33 52.86 L 237.9 52.86" fill="#114ea5"/><rect x="264.33" y="0" width="52.87" height="52.87" fill="#114ea5"/><polygon points="317.2,0 317.2,52.87 264.33,52.87" fill="#114ea5"/><rect x="317.20000000000005" y="0" width="52.866666666666674" height="52.866666666666674" fill="#ffffff"/><rect x="317.2" y="0" width="26.43" height="26.43" fill="#114ea5"/><path d="M 317.2 26.43 A 26.43 26.43 0 0 1  343.63 0 L 343.63 26.43" fill="#114ea5"/><rect x="343.63" y="0" width="26.43" height="26.43" fill="#114ea5"/><path d="M 343.63 0 A 26.43 26.43 0 0 1 370.06 26.43 L 343.63 26.43" fill="#114ea5"/><rect x="317.2" y="26.43" width="26.43" height="26.43" fill="#114ea5"/><path d="M 317.2 26.43 A 26.43 26.43 0 0 0 343.63 52.86 L 343.63 26.43" fill="#114ea5"/><rect x="343.63" y="26.43" width="26.43" height="26.43" fill="#114ea5"/><path d="M 343.63 52.86 A 26.43 26.43 0 0 0 370.06 26.43 L 343.63 26.43" fill="#114ea5"/><rect x="370.07" y="0" width="52.87" height="52.87" fill="#114ea5"/><path d="M 370.07 0 A 52.87 52.87 0 0 1  422.94 52.87 L 370.07 0 A 52.87 52.87 0 0 0 422.94 52.87" fill="#114ea5"/><rect x="422.93" y="0" width="52.87" height="52.87" fill="#114ea5"/><polygon points="475.8,0 475.8,52.87 422.93,52.87" fill="#114ea5"/><rect x="475.80000000000007" y="0" width="52.866666666666674" height="52.866666666666674" fill="#ffffff"/><rect x="475.8" y="0" width="26.43" height="26.43" fill="#114ea5"/><path d="M 475.8 0 A 26.43 26.43 0 0 0 502.23 26.43 L 502.23 0" fill="#114ea5"/><rect x="502.23" y="0" width="26.43" height="26.43" fill="#114ea5"/><path d="M 502.23 26.43 A 26.43 26.43 0 0 0 528.66 0 L 502.23 0" fill="#114ea5"/><rect x="475.8" y="26.43" width="26.43" height="26.43" fill="#114ea5"/><path d="M 475.8 52.86 A 26.43 26.43 0 0 1  502.23 26.43 L 502.23 52.86" fill="#114ea5"/><rect x="502.23" y="26.43" width="26.43" height="26.43" fill="#114ea5"/><path d="M 502.23 26.43 A 26.43 26.43 0 0 1 528.66 52.86 L 502.23 52.86" fill="#114ea5"/><rect x="0" y="52.866666666666674" width="52.866666666666674" height="52.866666666666674" fill="#ffffff"/><rect x="0" y="52.87" width="26.43" height="26.43" fill="#114ea5"/><circle cx="13.215" cy="66.085" r="13.215" fill="#114ea5"/><rect x="26.43" y="52.87" width="26.43" height="26.43" fill="#114ea5"/><rect x="26.43" y="52.87" width="26.43" height="26.43" fill="#114ea5"/><rect x="0" y="79.3" width="26.43" height="26.43" fill="#114ea5"/><circle cx="13.215" cy="92.515" r="13.215" fill="#114ea5"/><rect x="26.43" y="79.3" width="26.43" height="26.43" fill="#114ea5"/><rect x="26.43" y="79.3" width="26.43" height="26.43" fill="#114ea5"/><rect x="52.866666666666674" y="52.866666666666674" width="52.866666666666674" height="52.866666666666674" fill="#ffffff"/><rect x="52.87" y="52.87" width="26.43" height="26.43" fill="#114ea5"/><path d="M 52.87 79.3 A 26.43 26.43 0 0 1  79.3 52.87 L 79.3 79.3" fill="#114ea5"/><rect x="79.3" y="52.87" width="26.43" height="26.43" fill="#114ea5"/><path d="M 79.3 52.87 A 26.43 26.43 0 0 1 105.72999999999999 79.3 L 79.3 79.3" fill="#114ea5"/><rect x="52.87" y="79.3" width="26.43" height="26.43" fill="#114ea5"/><path d="M 52.87 79.3 A 26.43 26.43 0 0 0 79.3 105.72999999999999 L 79.3 79.3" fill="#114ea5"/><rect x="79.3" y="79.3" width="26.43" height="26.43" fill="#114ea5"/><path d="M 79.3 105.72999999999999 A 26.43 26.43 0 0 0 105.72999999999999 79.3 L 79.3 79.3" fill="#114ea5"/><rect x="105.73" y="52.87" width="52.87" height="52.87" fill="#114ea5"/><rect x="105.73" y="52.87" width="52.87" height="52.87" fill="#114ea5"/><rect x="158.6" y="52.87" width="52.87" height="52.87" fill="#114ea5"/><path d="M 158.6 52.87 A 52.87 52.87 0 0 1 211.47 105.74 L 158.6 105.74" fill="#114ea5"/><rect x="211.4666666666667" y="52.866666666666674" width="52.866666666666674" height="52.866666666666674" fill="#ffffff"/><rect x="211.47" y="52.87" width="26.43" height="26.43" fill="#114ea5"/><circle cx="224.685" cy="66.085" r="13.215" fill="#114ea5"/><rect x="237.9" y="52.87" width="26.43" height="26.43" fill="#114ea5"/><rect x="237.9" y="52.87" width="26.43" height="26.43" fill="#114ea5"/><rect x="211.47" y="79.3" width="26.43" height="26.43" fill="#114ea5"/><circle cx="224.685" cy="92.515" r="13.215" fill="#114ea5"/><rect x="237.9" y="79.3" width="26.43" height="26.43" fill="#114ea5"/><rect x="237.9" y="79.3" width="26.43" height="26.43" fill="#114ea5"/><rect x="264.33333333333337" y="52.866666666666674" width="52.866666666666674" height="52.866666666666674" fill="#ffffff"/><rect x="264.33" y="52.87" width="26.43" height="26.43" fill="#114ea5"/><polygon points="290.76,52.87 290.76,79.3 264.33,79.3" fill="#114ea5"/><rect x="290.77" y="52.87" width="26.43" height="26.43" fill="#114ea5"/><polygon points="290.77,52.87 317.2,79.3 290.77,79.3" fill="#114ea5"/><rect x="264.33" y="79.3" width="26.43" height="26.43" fill="#114ea5"/><polygon points="264.33,79.3 290.76,79.3 264.33,105.72999999999999" fill="#114ea5"/><rect x="290.77" y="79.3" width="26.43" height="26.43" fill="#114ea5"/><polygon points="290.77,79.3 317.2,79.3 317.2,105.72999999999999" fill="#114ea5"/><rect x="317.2" y="52.87" width="52.87" height="52.87" fill="#114ea5"/><polygon points="317.2,52.87 370.07,105.74 317.2,105.74" fill="#114ea5"/><rect x="370.07" y="52.87" width="52.87" height="52.87" fill="#114ea5"/><path d="M 370.07 52.87 A 52.87 52.87 0 0 1  422.94 105.74 L 370.07 52.87 A 52.87 52.87 0 0 0 422.94 105.74" fill="#114ea5"/><rect x="422.9333333333334" y="52.866666666666674" width="52.866666666666674" height="52.866666666666674" fill="#ffffff"/><rect x="422.93" y="52.87" width="26.43" height="26.43" fill="#114ea5"/><polygon points="449.36,52.87 449.36,79.3 422.93,79.3" fill="#114ea5"/><rect x="449.37" y="52.87" width="26.43" height="26.43" fill="#114ea5"/><polygon points="449.37,52.87 475.8,52.87 449.37,79.3" fill="#114ea5"/><rect x="422.93" y="79.3" width="26.43" height="26.43" fill="#114ea5"/><polygon points="422.93,79.3 449.36,79.3 449.36,105.72999999999999" fill="#114ea5"/><rect x="449.37" y="79.3" width="26.43" height="26.43" fill="#114ea5"/><polygon points="449.37,79.3 475.8,105.72999999999999 449.37,105.72999999999999" fill="#114ea5"/><rect x="475.80000000000007" y="52.866666666666674" width="52.866666666666674" height="52.866666666666674" fill="#ffffff"/><rect x="475.8" y="52.87" width="26.43" height="26.43" fill="#114ea5"/><polygon points="502.23,52.87 502.23,79.3 475.8,79.3" fill="#114ea5"/><rect x="502.23" y="52.87" width="26.43" height="26.43" fill="#114ea5"/><polygon points="502.23,52.87 528.66,79.3 502.23,79.3" fill="#114ea5"/><rect x="475.8" y="79.3" width="26.43" height="26.43" fill="#114ea5"/><polygon points="475.8,79.3 502.23,79.3 502.23,105.72999999999999" fill="#114ea5"/><rect x="502.23" y="79.3" width="26.43" height="26.43" fill="#114ea5"/><polygon points="502.23,79.3 528.66,79.3 502.23,105.72999999999999" fill="#114ea5"/><rect x="0" y="105.73333333333335" width="52.866666666666674" height="52.866666666666674" fill="#ffffff"/><rect x="0" y="105.73" width="26.43" height="26.43" fill="#114ea5"/><path d="M 0 132.16 A 26.43 26.43 0 0 1 26.43 105.73 L 26.43 112.3375 A 19.822499999999998 19.822499999999998 0 0 0 6.6075 132.16" fill="#114ea5"/><rect x="26.43" y="105.73" width="26.43" height="26.43" fill="#114ea5"/><path d="M 26.43 105.73 A 26.43 26.43 0 0 1 52.86 132.16 L 46.2525 132.16 A 19.822499999999998 19.822499999999998 0 0 0 26.43 112.3375" fill="#114ea5"/><rect x="0" y="132.17" width="26.43" height="26.43" fill="#114ea5"/><path d="M 0 132.17 A 26.43 26.43 0 0 0 26.43 158.6 L 26.43 151.99249999999998 A 19.822499999999998 19.822499999999998 0 0 1 6.6075 132.17" fill="#114ea5"/><rect x="26.43" y="132.17" width="26.43" height="26.43" fill="#114ea5"/><path d="M 26.43 158.6 A 26.43 26.43 0 0 0 52.86 132.17 L 46.2525 132.17 A 19.822499999999998 19.822499999999998 0 0 1 26.43 151.99249999999998" fill="#114ea5"/><rect x="52.866666666666674" y="105.73333333333335" width="52.866666666666674" height="52.866666666666674" fill="#ffffff"/><rect x="52.87" y="105.73" width="26.43" height="26.43" fill="#114ea5"/><polygon points="79.3,105.73 79.3,132.16 52.87,132.16" fill="#114ea5"/><rect x="79.3" y="105.73" width="26.43" height="26.43" fill="#114ea5"/><polygon points="79.3,105.73 105.72999999999999,132.16 79.3,132.16" fill="#114ea5"/><rect x="52.87" y="132.17" width="26.43" height="26.43" fill="#114ea5"/><polygon points="52.87,132.17 79.3,132.17 79.3,158.6" fill="#114ea5"/><rect x="79.3" y="132.17" width="26.43" height="26.43" fill="#114ea5"/><polygon points="79.3,132.17 105.72999999999999,132.17 79.3,158.6" fill="#114ea5"/><rect x="105.73" y="105.73" width="52.87" height="52.87" fill="#114ea5"/><path d="M 105.73 158.6 A 52.87 52.87 0 0 1  158.6 105.73 L 158.6 158.6" fill="#114ea5"/><rect x="158.6" y="105.73" width="52.87" height="52.87" fill="#114ea5"/><rect x="158.6" y="105.73" width="52.87" height="52.87" fill="#114ea5"/><rect x="211.4666666666667" y="105.73333333333335" width="52.866666666666674" height="52.866666666666674" fill="#ffffff"/><rect x="211.47" y="105.73" width="26.43" height="26.43" fill="#114ea5"/><circle cx="224.685" cy="118.94500000000001" r="13.215" fill="#114ea5"/><rect x="237.9" y="105.73" width="26.43" height="26.43" fill="#114ea5"/><rect x="237.9" y="105.73" width="26.43" height="26.43" fill="#114ea5"/><rect x="211.47" y="132.17" width="26.43" height="26.43" fill="#114ea5"/><circle cx="224.685" cy="145.385" r="13.215" fill="#114ea5"/><rect x="237.9" y="132.17" width="26.43" height="26.43" fill="#114ea5"/><rect x="237.9" y="132.17" width="26.43" height="26.43" fill="#114ea5"/><rect x="264.33333333333337" y="105.73333333333335" width="52.866666666666674" height="52.866666666666674" fill="#ffffff"/><rect x="264.33" y="105.73" width="26.43" height="26.43" fill="#114ea5"/><path d="M 264.33 132.16 A 26.43 26.43 0 0 0 290.76 105.73 L 264.33 105.73" fill="#114ea5"/><rect x="290.77" y="105.73" width="26.43" height="26.43" fill="#114ea5"/><path d="M 290.77 105.73 A 26.43 26.43 0 0 0 317.2 132.16 L 317.2 105.73" fill="#114ea5"/><rect x="264.33" y="132.17" width="26.43" height="26.43" fill="#114ea5"/><path d="M 264.33 132.17 A 26.43 26.43 0 0 1 290.76 158.6 L 264.33 158.6" fill="#114ea5"/><rect x="290.77" y="132.17" width="26.43" height="26.43" fill="#114ea5"/><path d="M 290.77 158.6 A 26.43 26.43 0 0 1  317.2 132.17 L 317.2 158.6" fill="#114ea5"/><rect x="317.2" y="105.73" width="52.87" height="52.87" fill="#114ea5"/><polygon points="317.2,105.73 370.07,105.73 317.2,158.6" fill="#114ea5"/><rect x="370.0666666666667" y="105.73333333333335" width="52.866666666666674" height="52.866666666666674" fill="#ffffff"/><rect x="370.07" y="105.73" width="26.43" height="26.43" fill="#114ea5"/><polygon points="396.5,105.73 396.5,132.16 370.07,132.16" fill="#114ea5"/><rect x="396.5" y="105.73" width="26.43" height="26.43" fill="#114ea5"/><polygon points="396.5,105.73 422.93,132.16 396.5,132.16" fill="#114ea5"/><rect x="370.07" y="132.17" width="26.43" height="26.43" fill="#114ea5"/><polygon points="370.07,132.17 396.5,132.17 396.5,158.6" fill="#114ea5"/><rect x="396.5" y="132.17" width="26.43" height="26.43" fill="#114ea5"/><polygon points="396.5,132.17 422.93,132.17 396.5,158.6" fill="#114ea5"/><rect x="422.9333333333334" y="105.73333333333335" width="52.866666666666674" height="52.866666666666674" fill="#ffffff"/><rect x="422.93" y="105.73" width="26.43" height="26.43" fill="#114ea5"/><path d="M 422.93 105.73 A 26.43 26.43 0 0 0 449.36 132.16 L 449.36 105.73" fill="#114ea5"/><rect x="449.37" y="105.73" width="26.43" height="26.43" fill="#114ea5"/><path d="M 449.37 132.16 A 26.43 26.43 0 0 0 475.8 105.73 L 449.37 105.73" fill="#114ea5"/><rect x="422.93" y="132.17" width="26.43" height="26.43" fill="#114ea5"/><path d="M 422.93 158.6 A 26.43 26.43 0 0 1  449.36 132.17 L 449.36 158.6" fill="#114ea5"/><rect x="449.37" y="132.17" width="26.43" height="26.43" fill="#114ea5"/><path d="M 449.37 132.17 A 26.43 26.43 0 0 1 475.8 158.6 L 449.37 158.6" fill="#114ea5"/><rect x="475.80000000000007" y="105.73333333333335" width="52.866666666666674" height="52.866666666666674" fill="#ffffff"/><rect x="475.8" y="105.73" width="26.43" height="26.43" fill="#114ea5"/><circle cx="489.015" cy="118.94500000000001" r="13.215" fill="#114ea5"/><rect x="502.23" y="105.73" width="26.43" height="26.43" fill="#114ea5"/><rect x="502.23" y="105.73" width="26.43" height="26.43" fill="#114ea5"/><rect x="475.8" y="132.17" width="26.43" height="26.43" fill="#114ea5"/><circle cx="489.015" cy="145.385" r="13.215" fill="#114ea5"/><rect x="502.23" y="132.17" width="26.43" height="26.43" fill="#114ea5"/><rect x="502.23" y="132.17" width="26.43" height="26.43" fill="#114ea5"/><rect x="0" y="158.6" width="52.87" height="52.87" fill="#114ea5"/><polygon points="0,158.6 52.87,158.6 0,211.47" fill="#114ea5"/><rect x="52.87" y="158.6" width="52.87" height="52.87" fill="#114ea5"/><path d="M 52.87 158.6 A 52.87 52.87 0 0 1 105.74 211.47 L 52.87 211.47" fill="#114ea5"/><rect x="105.73333333333335" y="158.60000000000002" width="52.866666666666674" height="52.866666666666674" fill="#ffffff"/><rect x="105.73" y="158.6" width="26.43" height="26.43" fill="#114ea5"/><polygon points="132.16,158.6 132.16,185.03 105.73,185.03" fill="#114ea5"/><rect x="132.17" y="158.6" width="26.43" height="26.43" fill="#114ea5"/><polygon points="132.17,158.6 158.6,185.03 132.17,185.03" fill="#114ea5"/><rect x="105.73" y="185.03" width="26.43" height="26.43" fill="#114ea5"/><polygon points="105.73,185.03 132.16,185.03 105.73,211.46" fill="#114ea5"/><rect x="132.17" y="185.03" width="26.43" height="26.43" fill="#114ea5"/><polygon points="132.17,185.03 158.6,185.03 158.6,211.46" fill="#114ea5"/><rect x="158.60000000000002" y="158.60000000000002" width="52.866666666666674" height="52.866666666666674" fill="#ffffff"/><rect x="158.6" y="158.6" width="26.43" height="26.43" fill="#114ea5"/><path d="M 158.6 185.03 A 26.43 26.43 0 0 1  185.03 158.6 L 185.03 185.03" fill="#114ea5"/><rect x="185.03" y="158.6" width="26.43" height="26.43" fill="#114ea5"/><path d="M 185.03 158.6 A 26.43 26.43 0 0 1 211.46 185.03 L 185.03 185.03" fill="#114ea5"/><rect x="158.6" y="185.03" width="26.43" height="26.43" fill="#114ea5"/><path d="M 158.6 185.03 A 26.43 26.43 0 0 0 185.03 211.46 L 185.03 185.03" fill="#114ea5"/><rect x="185.03" y="185.03" width="26.43" height="26.43" fill="#114ea5"/><path d="M 185.03 211.46 A 26.43 26.43 0 0 0 211.46 185.03 L 185.03 185.03" fill="#114ea5"/><rect x="211.47" y="158.6" width="52.87" height="52.87" fill="#114ea5"/><rect x="211.47" y="158.6" width="52.87" height="52.87" fill="#114ea5"/><rect x="264.33333333333337" y="158.60000000000002" width="52.866666666666674" height="52.866666666666674" fill="#ffffff"/><rect x="264.33" y="158.6" width="26.43" height="26.43" fill="#114ea5"/><path d="M 264.33 185.03 A 26.43 26.43 0 0 0 290.76 158.6 L 264.33 158.6" fill="#114ea5"/><rect x="290.77" y="158.6" width="26.43" height="26.43" fill="#114ea5"/><path d="M 290.77 158.6 A 26.43 26.43 0 0 0 317.2 185.03 L 317.2 158.6" fill="#114ea5"/><rect x="264.33" y="185.03" width="26.43" height="26.43" fill="#114ea5"/><path d="M 264.33 185.03 A 26.43 26.43 0 0 1 290.76 211.46 L 264.33 211.46" fill="#114ea5"/><rect x="290.77" y="185.03" width="26.43" height="26.43" fill="#114ea5"/><path d="M 290.77 211.46 A 26.43 26.43 0 0 1  317.2 185.03 L 317.2 211.46" fill="#114ea5"/><rect x="317.20000000000005" y="158.60000000000002" width="52.866666666666674" height="52.866666666666674" fill="#ffffff"/><rect x="317.2" y="158.6" width="26.43" height="26.43" fill="#114ea5"/><polygon points="343.63,158.6 343.63,185.03 317.2,185.03" fill="#114ea5"/><rect x="343.63" y="158.6" width="26.43" height="26.43" fill="#114ea5"/><polygon points="343.63,158.6 370.06,185.03 343.63,185.03" fill="#114ea5"/><rect x="317.2" y="185.03" width="26.43" height="26.43" fill="#114ea5"/><polygon points="317.2,185.03 343.63,185.03 343.63,211.46" fill="#114ea5"/><rect x="343.63" y="185.03" width="26.43" height="26.43" fill="#114ea5"/><polygon points="343.63,185.03 370.06,185.03 343.63,211.46" fill="#114ea5"/><rect x="370.07" y="158.6" width="52.87" height="52.87" fill="#114ea5"/><polygon points="422.94,158.6 422.94,211.47 370.07,211.47" fill="#114ea5"/><rect x="422.9333333333334" y="158.60000000000002" width="52.866666666666674" height="52.866666666666674" fill="#ffffff"/><rect x="422.93" y="158.6" width="26.43" height="26.43" fill="#114ea5"/><path d="M 422.93 158.6 A 26.43 26.43 0 0 1 449.36 185.03 L 422.93 185.03" fill="#114ea5"/><rect x="449.37" y="158.6" width="26.43" height="26.43" fill="#114ea5"/><path d="M 449.37 185.03 A 26.43 26.43 0 0 1  475.8 158.6 L 475.8 185.03" fill="#114ea5"/><rect x="422.93" y="185.03" width="26.43" height="26.43" fill="#114ea5"/><path d="M 422.93 211.46 A 26.43 26.43 0 0 0 449.36 185.03 L 422.93 185.03" fill="#114ea5"/><rect x="449.37" y="185.03" width="26.43" height="26.43" fill="#114ea5"/><path d="M 449.37 185.03 A 26.43 26.43 0 0 0 475.8 211.46 L 475.8 185.03" fill="#114ea5"/><rect x="475.8" y="158.6" width="52.87" height="52.87" fill="#114ea5"/><polygon points="528.67,158.6 528.67,211.47 475.8,211.47" fill="#114ea5"/><rect x="0" y="211.47" width="52.87" height="52.87" fill="#114ea5"/><rect x="0" y="211.47" width="52.87" height="52.87" fill="#114ea5"/><rect x="52.87" y="211.47" width="52.87" height="52.87" fill="#114ea5"/><path d="M 52.87 211.47 A 52.87 52.87 0 0 1  105.74 264.34 L 52.87 211.47 A 52.87 52.87 0 0 0 105.74 264.34" fill="#114ea5"/><rect x="105.73333333333335" y="211.4666666666667" width="52.866666666666674" height="52.866666666666674" fill="#ffffff"/><rect x="105.73" y="211.47" width="26.43" height="26.43" fill="#114ea5"/><path d="M 105.73 211.47 A 26.43 26.43 0 0 1 132.16 237.9 L 105.73 237.9" fill="#114ea5"/><rect x="132.17" y="211.47" width="26.43" height="26.43" fill="#114ea5"/><path d="M 132.17 237.9 A 26.43 26.43 0 0 1  158.6 211.47 L 158.6 237.9" fill="#114ea5"/><rect x="105.73" y="237.9" width="26.43" height="26.43" fill="#114ea5"/><path d="M 105.73 264.33 A 26.43 26.43 0 0 0 132.16 237.9 L 105.73 237.9" fill="#114ea5"/><rect x="132.17" y="237.9" width="26.43" height="26.43" fill="#114ea5"/><path d="M 132.17 237.9 A 26.43 26.43 0 0 0 158.6 264.33 L 158.6 237.9" fill="#114ea5"/><rect x="158.6" y="211.47" width="52.87" height="52.87" fill="#114ea5"/><polygon points="158.6,211.47 211.47,211.47 211.47,264.34" fill="#114ea5"/><rect x="211.47" y="211.47" width="52.87" height="52.87" fill="#114ea5"/><path d="M 211.47 211.47 A 52.87 52.87 0 0 1  264.34 264.34 L 211.47 211.47 A 52.87 52.87 0 0 0 264.34 264.34" fill="#114ea5"/><rect x="264.33" y="211.47" width="52.87" height="52.87" fill="#114ea5"/><polygon points="264.33,211.47 317.2,211.47 264.33,264.34" fill="#114ea5"/><rect x="317.20000000000005" y="211.4666666666667" width="52.866666666666674" height="52.866666666666674" fill="#ffffff"/><rect x="317.2" y="211.47" width="26.43" height="26.43" fill="#114ea5"/><polygon points="343.63,211.47 343.63,237.9 317.2,237.9" fill="#114ea5"/><rect x="343.63" y="211.47" width="26.43" height="26.43" fill="#114ea5"/><polygon points="343.63,211.47 370.06,237.9 343.63,237.9" fill="#114ea5"/><rect x="317.2" y="237.9" width="26.43" height="26.43" fill="#114ea5"/><polygon points="317.2,237.9 343.63,237.9 317.2,264.33" fill="#114ea5"/><rect x="343.63" y="237.9" width="26.43" height="26.43" fill="#114ea5"/><polygon points="343.63,237.9 370.06,237.9 370.06,264.33" fill="#114ea5"/><rect x="370.07" y="211.47" width="52.87" height="52.87" fill="#114ea5"/><path d="M 370.07 264.34 A 52.87 52.87 0 0 1  422.94 211.47 L 370.07 264.34 A 52.87 52.87 0 0 0 422.94 211.47" fill="#114ea5"/><rect x="422.93" y="211.47" width="52.87" height="52.87" fill="#114ea5"/><path d="M 422.93 264.34 A 52.87 52.87 0 0 1  475.8 211.47 L 475.8 264.34" fill="#114ea5"/><rect x="475.80000000000007" y="211.4666666666667" width="52.866666666666674" height="52.866666666666674" fill="#ffffff"/><rect x="475.8" y="211.47" width="26.43" height="26.43" fill="#114ea5"/><polygon points="502.23,211.47 502.23,237.9 475.8,237.9" fill="#114ea5"/><rect x="502.23" y="211.47" width="26.43" height="26.43" fill="#114ea5"/><polygon points="502.23,211.47 528.66,237.9 502.23,237.9" fill="#114ea5"/><rect x="475.8" y="237.9" width="26.43" height="26.43" fill="#114ea5"/><polygon points="475.8,237.9 502.23,237.9 502.23,264.33" fill="#114ea5"/><rect x="502.23" y="237.9" width="26.43" height="26.43" fill="#114ea5"/><polygon points="502.23,237.9 528.66,237.9 502.23,264.33" fill="#114ea5"/><rect x="0" y="264.33333333333337" width="52.866666666666674" height="52.866666666666674" fill="#ffffff"/><rect x="0" y="264.33" width="26.43" height="26.43" fill="#114ea5"/><path d="M 0 290.76 A 26.43 26.43 0 0 1 26.43 264.33 L 26.43 270.9375 A 19.822499999999998 19.822499999999998 0 0 0 6.6075 290.76" fill="#114ea5"/><rect x="26.43" y="264.33" width="26.43" height="26.43" fill="#114ea5"/><path d="M 26.43 264.33 A 26.43 26.43 0 0 1 52.86 290.76 L 46.2525 290.76 A 19.822499999999998 19.822499999999998 0 0 0 26.43 270.9375" fill="#114ea5"/><rect x="0" y="290.77" width="26.43" height="26.43" fill="#114ea5"/><path d="M 0 290.77 A 26.43 26.43 0 0 0 26.43 317.2 L 26.43 310.5925 A 19.822499999999998 19.822499999999998 0 0 1 6.6075 290.77" fill="#114ea5"/><rect x="26.43" y="290.77" width="26.43" height="26.43" fill="#114ea5"/><path d="M 26.43 317.2 A 26.43 26.43 0 0 0 52.86 290.77 L 46.2525 290.77 A 19.822499999999998 19.822499999999998 0 0 1 26.43 310.5925" fill="#114ea5"/><rect x="52.87" y="264.33" width="52.87" height="52.87" fill="#114ea5"/><path d="M 52.87 264.33 A 52.87 52.87 0 0 1 105.74 317.2 L 52.87 317.2" fill="#114ea5"/><rect x="105.73" y="264.33" width="52.87" height="52.87" fill="#114ea5"/><rect x="105.73" y="264.33" width="52.87" height="52.87" fill="#114ea5"/><rect x="158.6" y="264.33" width="52.87" height="52.87" fill="#114ea5"/><path d="M 158.6 264.33 A 52.87 52.87 0 0 1 211.47 317.2 L 158.6 317.2" fill="#114ea5"/><rect x="211.47" y="264.33" width="52.87" height="52.87" fill="#114ea5"/><rect x="211.47" y="264.33" width="52.87" height="52.87" fill="#114ea5"/><rect x="264.33" y="264.33" width="52.87" height="52.87" fill="#114ea5"/><polygon points="317.2,264.33 317.2,317.2 264.33,317.2" fill="#114ea5"/><rect x="317.20000000000005" y="264.33333333333337" width="52.866666666666674" height="52.866666666666674" fill="#ffffff"/><rect x="317.2" y="264.33" width="26.43" height="26.43" fill="#114ea5"/><path d="M 317.2 290.76 A 26.43 26.43 0 0 0 343.63 264.33 L 317.2 264.33" fill="#114ea5"/><rect x="343.63" y="264.33" width="26.43" height="26.43" fill="#114ea5"/><path d="M 343.63 264.33 A 26.43 26.43 0 0 0 370.06 290.76 L 370.06 264.33" fill="#114ea5"/><rect x="317.2" y="290.77" width="26.43" height="26.43" fill="#114ea5"/><path d="M 317.2 290.77 A 26.43 26.43 0 0 1 343.63 317.2 L 317.2 317.2" fill="#114ea5"/><rect x="343.63" y="290.77" width="26.43" height="26.43" fill="#114ea5"/><path d="M 343.63 317.2 A 26.43 26.43 0 0 1  370.06 290.77 L 370.06 317.2" fill="#114ea5"/><rect x="370.0666666666667" y="264.33333333333337" width="52.866666666666674" height="52.866666666666674" fill="#ffffff"/><rect x="370.07" y="264.33" width="26.43" height="26.43" fill="#114ea5"/><polygon points="396.5,264.33 396.5,290.76 370.07,290.76" fill="#114ea5"/><rect x="396.5" y="264.33" width="26.43" height="26.43" fill="#114ea5"/><polygon points="396.5,264.33 422.93,264.33 396.5,290.76" fill="#114ea5"/><rect x="370.07" y="290.77" width="26.43" height="26.43" fill="#114ea5"/><polygon points="370.07,290.77 396.5,290.77 396.5,317.2" fill="#114ea5"/><rect x="396.5" y="290.77" width="26.43" height="26.43" fill="#114ea5"/><polygon points="396.5,290.77 422.93,317.2 396.5,317.2" fill="#114ea5"/><rect x="422.93" y="264.33" width="52.87" height="52.87" fill="#114ea5"/><polygon points="422.93,264.33 475.8,317.2 422.93,317.2" fill="#114ea5"/><rect x="475.80000000000007" y="264.33333333333337" width="52.866666666666674" height="52.866666666666674" fill="#ffffff"/><rect x="475.8" y="264.33" width="26.43" height="26.43" fill="#114ea5"/><polygon points="502.23,264.33 502.23,290.76 475.8,290.76" fill="#114ea5"/><rect x="502.23" y="264.33" width="26.43" height="26.43" fill="#114ea5"/><polygon points="502.23,264.33 528.66,290.76 502.23,290.76" fill="#114ea5"/><rect x="475.8" y="290.77" width="26.43" height="26.43" fill="#114ea5"/><polygon points="475.8,290.77 502.23,290.77 475.8,317.2" fill="#114ea5"/><rect x="502.23" y="290.77" width="26.43" height="26.43" fill="#114ea5"/><polygon points="502.23,290.77 528.66,290.77 528.66,317.2" fill="#114ea5"/></g></svg>